<svg xmlns="http://www.w3.org/2000/svg">
  <symbol id="logo" width="25" height="34" viewBox="0 0 25 34">
    <path
      d="M12.7729 13.7248L9.78632 12.763L5.65027 13.729L2.54824 14.6951L0.480202 16.6271L11.8544 0.204858L11.0205 6.96694L12.7729 13.7248Z"
      fill="currentColor" />
    <path
      d="M12.2668 19.2747L15.4601 20.0032L19.566 18.709L22.612 17.4962L24.4654 15.3967L15.0705 32.7531L14.9937 25.9098L12.2668 19.2747Z"
      fill="currentColor" />
    <path
      d="M21.0302 14.4902L15.8601 7.7281L14.0365 5.70475L14.0365 3.77272L13.1581 5.80859e-06L24.1323 14.4902L13.7921 18.3543L18.0759 10.6261L21.0302 14.4902Z"
      fill="currentColor" />
    <path
      d="M4.07854 19.3931L9.77837 26.1733L11.7645 28.1954L11.8946 30.1685L13.0397 34L0.931852 19.4683L11.1606 15.2713L7.33558 23.2675L4.07854 19.3931Z"
      fill="currentColor" />
  </symbol>
  <symbol id="rhombus" width="15" height="21" viewBox="0 0 15 21">
    <path d="M7.5 0L15 10.5L7.5 21L0 10.5L7.5 0Z" fill="currentColor" />
  </symbol>
  <symbol id="sign" width="15" height="11" viewBox="0 0 15 11" fill="none">
    <path d="M1 1L7.80952 10L14 1" stroke="#A148AC" />
  </symbol>
  <symbol id="switch" width="11" height="15" viewBox="0 0 11 15" fill="none">
    <path d="M0.999969 14L9.99997 7.19048L0.999969 1" stroke="#DB58EC" stroke-opacity="0.5" />
  </symbol>
  <symbol id="switch-auction" width="41" height="38" viewBox="0 0 41 38" fill="none">
    <path d="M17 25L26 18.1905L17 12" stroke="#DB58EC" stroke-opacity="0.5" />
    <path
      d="M0.500244 18.9998C0.500244 8.81759 9.41809 0.499756 20.5002 0.499756C31.5824 0.499756 40.5002 8.81759 40.5002 18.9998C40.5002 29.1819 31.5824 37.4998 20.5002 37.4998C9.41809 37.4998 0.500244 29.1819 0.500244 18.9998Z"
      stroke="url(#paint0_linear_26_403)" />
    <defs>
      <linearGradient
        id="paint0_linear_26_403"
        x1="41.0002"
        y1="18.9998"
        x2="0.000244141"
        y2="18.9998"
        gradientUnits="userSpaceOnUse">
        <stop stop-color="#A658B3" />
        <stop offset="0.63022" stop-color="#A457B1" stop-opacity="0" />
      </linearGradient>
    </defs>
  </symbol>
  <symbol id="like" width="20" height="15" viewBox="0 0 20 15">
    <path
      d="M1 8.33834L11.413 16.255L21 8.33834L19 2.255L14.7174 1.255L11.413 5.005L7.69565 1.255L3.5 2.255L1 8.33834Z"
      stroke="#CB66DB" />
  </symbol>

</svg>
