<svg xmlns="http://www.w3.org/2000/svg">
  <symbol id="logo" viewBox="0 0 25 34" fill="none">
    <path
      d="M12.7729 13.7248L9.78632 12.763L5.65027 13.729L2.54824 14.6951L0.480202 16.6271L11.8544 0.204858L11.0205 6.96694L12.7729 13.7248Z"
      fill="#8F20A1" />
    <path
      d="M12.2668 19.2747L15.4601 20.0032L19.566 18.709L22.612 17.4962L24.4654 15.3967L15.0705 32.7531L14.9937 25.9098L12.2668 19.2747Z"
      fill="#8F20A1" />
    <path
      d="M21.0302 14.4902L15.8601 7.7281L14.0365 5.70475L14.0365 3.77272L13.1581 5.80859e-06L24.1323 14.4902L13.7921 18.3543L18.0759 10.6261L21.0302 14.4902Z"
      fill="#8F20A1" />
    <path
      d="M4.07854 19.3931L9.77837 26.1733L11.7645 28.1954L11.8946 30.1685L13.0397 34L0.931852 19.4683L11.1606 15.2713L7.33558 23.2675L4.07854 19.3931Z"
      fill="#8F20A1" />
  </symbol>
  <symbol id="logo-footer" viewBox="0 0 39 49" fill="none">
    <path
      d="M19.9257 19.7803L15.2667 18.3943L8.81442 19.7865L3.97525 21.1787L0.749119 23.9631L18.4928 0.295756L17.1919 10.0411L19.9257 19.7803Z"
      fill="#8F20A1" />
    <path
      d="M19.1363 27.7785L24.1178 28.8284L30.5229 26.9632L35.2748 25.2154L38.166 22.1897L23.51 47.2033L23.3902 37.3409L19.1363 27.7785Z"
      fill="#8F20A1" />
    <path
      d="M32.8072 20.8831L24.7418 11.1378L21.8969 8.22174L21.8969 5.43735L20.5266 0.000207886L37.6463 20.8831L21.5158 26.4519L28.1984 15.3143L32.8072 20.8831Z"
      fill="#8F20A1" />
    <path
      d="M6.36252 27.9492L15.2543 37.7208L18.3527 40.6349L18.5556 43.4785L20.3419 49.0004L1.45369 28.0576L17.4105 22.009L11.4435 33.5329L6.36252 27.9492Z"
      fill="#8F20A1" />
  </symbol>
  <symbol id="rhombus" width="15" height="21" viewBox="0 0 15 21">
    <path d="M7.5 0L15 10.5L7.5 21L0 10.5L7.5 0Z" fill="currentColor" />
  </symbol>
  <symbol id="sign" width="15" height="11" viewBox="0 0 15 11" fill="none">
    <path d="M1 1L7.80952 10L14 1" stroke="#A148AC" />
  </symbol>
  <symbol id="switch" width="11" height="15" viewBox="0 0 11 15" fill="none">
    <path d="M0.999969 14L9.99997 7.19048L0.999969 1" stroke="#DB58EC" stroke-opacity="0.5" />
  </symbol>
  <symbol id="switch-auction" width="41" height="38" viewBox="0 0 41 38" fill="none">
    <path d="M17 25L26 18.1905L17 12" stroke="#DB58EC" stroke-opacity="0.5" />
    <path
      d="M0.500244 18.9998C0.500244 8.81759 9.41809 0.499756 20.5002 0.499756C31.5824 0.499756 40.5002 8.81759 40.5002 18.9998C40.5002 29.1819 31.5824 37.4998 20.5002 37.4998C9.41809 37.4998 0.500244 29.1819 0.500244 18.9998Z"
      stroke="url(#paint0_linear_26_403)" />
    <defs>
      <linearGradient
        id="paint0_linear_26_403"
        x1="41.0002"
        y1="18.9998"
        x2="0.000244141"
        y2="18.9998"
        gradientUnits="userSpaceOnUse">
        <stop stop-color="#A658B3" />
        <stop offset="0.63022" stop-color="#A457B1" stop-opacity="0" />
      </linearGradient>
    </defs>
  </symbol>
  <symbol id="like" width="20" height="15" viewBox="0 0 20 15">
    <path
      d="M1 8.33834L11.413 16.255L21 8.33834L19 2.255L14.7174 1.255L11.413 5.005L7.69565 1.255L3.5 2.255L1 8.33834Z"
      stroke="#CB66DB" />
  </symbol>
  <symbol id="tw" viewBox="0 0 24 21" fill="none">
    <path
      d="M23.9438 3.09419C23.8932 2.97256 23.8079 2.8685 23.6985 2.795C23.5891 2.7215 23.4604 2.68181 23.3286 2.68089H19.7939C19.357 1.87957 18.7144 1.20887 17.9319 0.737718C17.1495 0.266564 16.2556 0.0119528 15.342 4.90475e-05C13.9694 -0.00591031 12.6503 0.5314 11.6734 1.49439C10.6965 2.45737 10.1414 3.76761 10.1296 5.13833V6.11014C5.38686 4.98195 1.4719 1.12824 1.42715 1.09473C1.34092 1.00972 1.23325 0.949607 1.11556 0.920776C0.997881 0.891946 0.874576 0.895471 0.758737 0.930977C0.642897 0.966482 0.538845 1.03264 0.457622 1.12244C0.376399 1.21224 0.321035 1.32232 0.297408 1.441C-0.675739 6.75801 0.923802 10.3101 2.43386 12.3543C3.23475 13.4488 4.21857 14.3972 5.34211 15.158C3.60835 17.258 0.756018 18.3527 0.722461 18.3638C0.627161 18.3989 0.541245 18.4554 0.471402 18.529C0.401558 18.6027 0.349671 18.6914 0.319779 18.7883C0.288039 18.8829 0.278591 18.9835 0.292172 19.0823C0.305754 19.1811 0.341997 19.2755 0.398079 19.358C0.509935 19.5255 1.60612 21 5.4316 21C13.228 21 19.7492 14.9793 20.3756 7.2495L23.7984 3.82025C23.8954 3.72948 23.9615 3.61069 23.9876 3.4805C24.0137 3.35031 23.9984 3.21525 23.9438 3.09419ZM19.2458 6.47876C19.1295 6.59467 19.0615 6.75037 19.0557 6.91439C18.5971 14.0633 12.6128 19.6596 5.4316 19.6596C3.8768 19.6596 2.88128 19.3915 2.28845 19.1234C3.55242 18.4867 5.62175 17.2356 6.88573 15.3367C6.93608 15.258 6.96997 15.1699 6.98535 15.0778C7.00072 14.9856 6.99728 14.8913 6.97521 14.8005C6.95137 14.7077 6.90815 14.6208 6.8484 14.5458C6.78865 14.4707 6.7137 14.4091 6.62846 14.3649C6.60609 14.3649 4.92825 13.4936 3.47412 11.5053C1.74035 9.13726 1.05803 6.24418 1.43834 2.9043C3.07144 4.2894 6.5949 6.90322 10.6888 7.58461C10.7852 7.60288 10.8844 7.59948 10.9793 7.57465C11.0742 7.54982 11.1623 7.50418 11.2373 7.44106C11.3123 7.37794 11.3723 7.29892 11.4128 7.20975C11.4534 7.12057 11.4735 7.02349 11.4718 6.92556V5.13833C11.4807 4.12607 11.8903 3.15845 12.6113 2.44684C13.3323 1.73523 14.306 1.33748 15.3197 1.34047C16.0521 1.35103 16.7661 1.57138 17.3769 1.97533C17.9876 2.37927 18.4693 2.94983 18.7648 3.61919C18.8159 3.7396 18.9016 3.84213 19.0112 3.91374C19.1207 3.98535 19.2491 4.02279 19.38 4.02132H21.7066L19.2458 6.47876Z"
      fill="#9550A1" />
  </symbol>
  <symbol id="discord" viewBox="0 0 26 21" fill="none">
    <path
      d="M21.9993 1.74523C20.3526 0.931691 18.5697 0.341221 16.7125 6.03568e-05C16.6962 -0.00049154 16.68 0.00274697 16.665 0.00954824C16.65 0.0163495 16.6367 0.0265484 16.6258 0.0394253C16.4029 0.472437 16.1429 1.03666 15.9696 1.46968C13.9997 1.15476 11.9964 1.15476 10.0266 1.46968C9.85324 1.02354 9.59323 0.472437 9.35798 0.0394253C9.3456 0.0131822 9.30846 6.03568e-05 9.27131 6.03568e-05C7.41412 0.341221 5.6436 0.931691 3.9845 1.74523C3.97212 1.74523 3.95974 1.75835 3.94736 1.77147C0.579648 7.11195 -0.348949 12.3081 0.109159 17.4517C0.109159 17.478 0.12154 17.5042 0.146302 17.5174C2.37493 19.2494 4.5169 20.2991 6.6341 20.9946C6.67124 21.0077 6.70839 20.9946 6.72077 20.9683C7.21602 20.2466 7.66175 19.4856 8.04557 18.6852C8.07033 18.6327 8.04557 18.5802 7.99604 18.5671C7.29031 18.2784 6.62172 17.9372 5.96551 17.5436C5.91599 17.5174 5.91598 17.4386 5.95313 17.3993C6.08932 17.2943 6.22552 17.1762 6.36171 17.0712C6.38647 17.045 6.42362 17.045 6.44838 17.0581C10.7075 19.1182 15.301 19.1182 19.5106 17.0581C19.5354 17.045 19.5725 17.045 19.5973 17.0712C19.7335 17.1893 19.8697 17.2943 20.0059 17.4124C20.0554 17.4517 20.0554 17.5305 19.9935 17.5567C19.3497 17.9635 18.6687 18.2915 17.963 18.5802C17.9135 18.5933 17.9011 18.6589 17.9135 18.6983C18.3097 19.4987 18.7554 20.2598 19.2383 20.9814C19.2754 20.9946 19.3125 21.0077 19.3497 20.9946C21.4793 20.2991 23.6212 19.2494 25.8499 17.5174C25.8746 17.5042 25.887 17.478 25.887 17.4517C26.4318 11.5077 24.9832 6.3509 22.0488 1.77147C22.0364 1.75835 22.024 1.74523 21.9993 1.74523ZM8.68939 14.3157C7.41412 14.3157 6.34933 13.0691 6.34933 11.5339C6.34933 9.99869 7.38936 8.75214 8.68939 8.75214C10.0018 8.75214 11.0418 10.0118 11.0295 11.5339C11.0295 13.0691 9.98943 14.3157 8.68939 14.3157ZM17.3192 14.3157C16.0439 14.3157 14.9791 13.0691 14.9791 11.5339C14.9791 9.99869 16.0191 8.75214 17.3192 8.75214C18.6316 8.75214 19.6716 10.0118 19.6592 11.5339C19.6592 13.0691 18.6316 14.3157 17.3192 14.3157Z"
      fill="#9550A1" />
  </symbol>
  <symbol id="inst" viewBox="0 0 21 21" fill="none">
    <path
      d="M10.5 5.46C9.50318 5.46 8.52875 5.75559 7.69993 6.30939C6.8711 6.8632 6.22511 7.65034 5.84365 8.57127C5.46218 9.49222 5.36237 10.5056 5.55684 11.4833C5.75131 12.4609 6.23133 13.359 6.93618 14.0638C7.64104 14.7687 8.53908 15.2487 9.51674 15.4432C10.4944 15.6376 11.5078 15.5378 12.4287 15.1564C13.3497 14.7749 14.1368 14.1289 14.6906 13.3001C15.2444 12.4713 15.54 11.4968 15.54 10.5C15.54 9.16331 15.009 7.88137 14.0638 6.93618C13.1186 5.991 11.8367 5.46 10.5 5.46ZM10.5 13.86C9.83545 13.86 9.18583 13.6629 8.63328 13.2937C8.08074 12.9245 7.65007 12.3998 7.39576 11.7858C7.14145 11.1719 7.07491 10.4963 7.20456 9.8445C7.33421 9.19272 7.65422 8.59403 8.12412 8.12412C8.59403 7.65422 9.19272 7.33421 9.8445 7.20456C10.4963 7.07491 11.1719 7.14145 11.7858 7.39576C12.3998 7.65007 12.9245 8.08074 13.2937 8.63328C13.6629 9.18583 13.86 9.83545 13.86 10.5C13.8572 11.3903 13.5023 12.2433 12.8728 12.8728C12.2433 13.5023 11.3903 13.8572 10.5 13.86ZM15.12 0H5.88C4.32053 0 2.82493 0.619498 1.72221 1.72221C0.619498 2.82493 0 4.32053 0 5.88V15.12C0 16.6795 0.619498 18.1751 1.72221 19.2778C2.82493 20.3805 4.32053 21 5.88 21H15.12C16.6795 21 18.1751 20.3805 19.2778 19.2778C20.3805 18.1751 21 16.6795 21 15.12V5.88C21 4.32053 20.3805 2.82493 19.2778 1.72221C18.1751 0.619498 16.6795 0 15.12 0ZM19.32 15.12C19.32 15.6716 19.2114 16.2177 19.0003 16.7273C18.7892 17.2368 18.4799 17.6998 18.0898 18.0898C17.6998 18.4799 17.2368 18.7892 16.7273 19.0003C16.2177 19.2114 15.6716 19.32 15.12 19.32H5.88C5.32845 19.32 4.7823 19.2114 4.27273 19.0003C3.76316 18.7892 3.30016 18.4799 2.91015 18.0898C2.52015 17.6998 2.21078 17.2368 1.99971 16.7273C1.78864 16.2177 1.68 15.6716 1.68 15.12V5.88C1.68 4.76609 2.1225 3.6978 2.91015 2.91015C3.6978 2.1225 4.76609 1.68 5.88 1.68H15.12C15.6716 1.68 16.2177 1.78864 16.7273 1.99971C17.2368 2.21078 17.6998 2.52015 18.0898 2.91015C18.4799 3.30016 18.7892 3.76316 19.0003 4.27273C19.2114 4.7823 19.32 5.32845 19.32 5.88V15.12ZM17.22 5.04C17.22 5.2892 17.1461 5.53281 17.0077 5.74002C16.8692 5.94722 16.6724 6.10872 16.4422 6.20409C16.2119 6.29945 15.9586 6.32441 15.7142 6.27579C15.4698 6.22717 15.2453 6.10717 15.069 5.93095C14.8928 5.75474 14.7728 5.53023 14.7242 5.28581C14.6756 5.0414 14.7005 4.78805 14.7959 4.55782C14.8913 4.32758 15.0528 4.1308 15.26 3.99235C15.4672 3.8539 15.7108 3.78 15.96 3.78C16.2942 3.78 16.6147 3.91275 16.851 4.14904C17.0872 4.38534 17.22 4.70583 17.22 5.04Z"
      fill="#9550A1" />
  </symbol>

  <symbol id="vk" viewBox="0 0 29 19" fill="none">
    <path
      fill-rule="evenodd"
      clip-rule="evenodd"
      d="M25.4316 12.7982C25.4316 12.7982 27.7416 15.2724 28.313 16.4173C28.3241 16.4338 28.3328 16.4521 28.3387 16.4715C28.5716 16.8945 28.6287 17.226 28.5144 17.4708C28.3216 17.8751 27.6687 18.0781 27.4473 18.0951H23.3644C23.0801 18.0951 22.4887 18.0146 21.7687 17.4754C21.2187 17.0587 20.6716 16.3724 20.1416 15.7015C19.3501 14.7054 18.6659 13.8409 17.973 13.8409C17.8855 13.8407 17.7986 13.8564 17.7159 13.8873C17.1916 14.0671 16.5259 14.8773 16.5259 17.0354C16.5259 17.7109 16.0344 18.0951 15.6901 18.0951H13.8201C13.183 18.0951 9.86585 17.8535 6.92442 14.49C3.32013 10.3721 0.0829859 2.11139 0.0515573 2.03857C-0.149871 1.50408 0.272986 1.21281 0.730129 1.21281H4.85299C5.40585 1.21281 5.58585 1.57534 5.71156 1.90069C5.85728 2.27406 6.39728 3.76755 7.28299 5.4454C8.71728 8.17521 9.59871 9.28603 10.303 9.28603C10.4353 9.28645 10.5654 9.24905 10.6801 9.17758C11.6001 8.62914 11.4287 5.06583 11.3859 4.33148C11.3859 4.18895 11.3844 2.74039 10.913 2.04012C10.5759 1.53816 10.0016 1.34295 9.65442 1.27169C9.74728 1.12606 9.94442 0.902961 10.1973 0.771274C10.8273 0.430436 11.9659 0.380859 13.0959 0.380859H13.723C14.9487 0.399451 15.2659 0.48466 15.7116 0.607052C16.6087 0.839441 16.6259 1.46999 16.5473 3.61727C16.5244 4.23078 16.5001 4.92175 16.5001 5.73512C16.5001 5.90863 16.493 6.10229 16.493 6.29905C16.4659 7.40057 16.4301 8.64154 17.1473 9.15124C17.2403 9.21408 17.3477 9.24736 17.4573 9.2473C17.7059 9.2473 18.4501 9.2473 20.4687 5.49033C21.3544 3.83107 22.0401 1.87435 22.0873 1.72717C22.1273 1.64506 22.2473 1.41422 22.393 1.32126C22.4967 1.26145 22.6128 1.23158 22.7302 1.2345H27.5802C28.1087 1.2345 28.4673 1.32126 28.5373 1.53816C28.6544 1.88984 28.5144 2.96348 26.3002 6.21074C25.9273 6.75143 25.6002 7.21931 25.313 7.62832C23.3059 10.4852 23.3059 10.6292 25.4316 12.7982Z"
      fill="#9550A1" />
  </symbol>
  <symbol id="fb" viewBox="0 0 21 20" fill="none">
    <path
      d="M20.2381 9.73863C20.2381 4.36291 15.7048 0 10.119 0C4.53333 0 0 4.36291 0 9.73863C0 14.4521 3.48095 18.3768 8.09524 19.2825V12.6602H6.07143V9.73863H8.09524V7.30397C8.09524 5.42442 9.68393 3.89545 11.6369 3.89545H14.1667V6.81704H12.1429C11.5863 6.81704 11.131 7.25528 11.131 7.79091V9.73863H14.1667V12.6602H11.131V19.4286C16.2411 18.9416 20.2381 14.793 20.2381 9.73863Z"
      fill="#9550A1" />
  </symbol>
  <symbol id="likes" viewBox="0 0 35 29" fill="none">
    <path
    d="M1.41809 13.9015L18.3336 28.3208L33.9073 13.9015L30.6583 2.82139L23.7014 1L18.3336 7.8302L12.2949 1L5.47924 2.82139L1.41809 13.9015Z"
    stroke="white" /></symbol>
</svg>
